<?xml version="1.0" encoding="UTF-8" standalone="no"?>
<!-- Created with Inkscape (http://www.inkscape.org/) -->

<svg
   xmlns:dc="http://purl.org/dc/elements/1.1/"
   xmlns:cc="http://creativecommons.org/ns#"
   xmlns:rdf="http://www.w3.org/1999/02/22-rdf-syntax-ns#"
   xmlns:svg="http://www.w3.org/2000/svg"
   xmlns="http://www.w3.org/2000/svg"
   xmlns:sodipodi="http://sodipodi.sourceforge.net/DTD/sodipodi-0.dtd"
   xmlns:inkscape="http://www.inkscape.org/namespaces/inkscape"
   width="337.5"
   height="202.5"
   id="svg2"
   version="1.1"
   inkscape:version="0.48.4 r9939"
   sodipodi:docname="udBusinessCard.svg"
   inkscape:export-filename="/home/brunetto/Dropbox/Blogs/upsidedown/udBusinessCard.png"
   inkscape:export-xdpi="200"
   inkscape:export-ydpi="200">
  <defs
     id="defs4" />
  <sodipodi:namedview
     id="base"
     pagecolor="#ffffff"
     bordercolor="#666666"
     borderopacity="1.0"
     inkscape:pageopacity="0.0"
     inkscape:pageshadow="2"
     inkscape:zoom="1.979899"
     inkscape:cx="178.00845"
     inkscape:cy="31.549298"
     inkscape:document-units="px"
     inkscape:current-layer="layer1-4"
     showgrid="false"
     units="cm"
     inkscape:window-width="1440"
     inkscape:window-height="852"
     inkscape:window-x="-2"
     inkscape:window-y="25"
     inkscape:window-maximized="1" />
  <metadata
     id="metadata7">
    <rdf:RDF>
      <cc:Work
         rdf:about="">
        <dc:format>image/svg+xml</dc:format>
        <dc:type
           rdf:resource="http://purl.org/dc/dcmitype/StillImage" />
        <dc:title />
      </cc:Work>
    </rdf:RDF>
  </metadata>
  <g
     inkscape:label="Layer 1"
     inkscape:groupmode="layer"
     id="layer1"
     transform="translate(0,-849.85978)">
    <text
       xml:space="preserve"
       style="font-size:30px;font-style:normal;font-variant:normal;font-weight:normal;font-stretch:normal;line-height:125%;letter-spacing:0px;word-spacing:0px;fill:#000000;fill-opacity:1;stroke:none;font-family:SansSerif;-inkscape-font-specification:SansSerif"
       x="10"
       y="885.64551"
       id="text3140"
       sodipodi:linespacing="125%"><tspan
         sodipodi:role="line"
         id="tspan3142"
         x="10"
         y="885.64551">UpsidedDown</tspan></text>
    <text
       xml:space="preserve"
       style="font-size:20px;font-style:normal;font-variant:normal;font-weight:normal;font-stretch:normal;line-height:125%;letter-spacing:0px;word-spacing:0px;fill:#000000;fill-opacity:1;stroke:none;font-family:SansSerif;-inkscape-font-specification:SansSerif"
       x="12.285294"
       y="913.20752"
       id="text3140-7"
       sodipodi:linespacing="125%"><tspan
         sodipodi:role="line"
         id="tspan3142-7"
         x="12.285294"
         y="913.20752">Gloria&amp;Brunetto</tspan></text>
    <text
       xml:space="preserve"
       style="font-size:22.83732033px;font-style:normal;font-variant:normal;font-weight:normal;font-stretch:normal;line-height:125%;letter-spacing:0px;word-spacing:0px;fill:#000000;fill-opacity:1;stroke:none;font-family:SansSerif;-inkscape-font-specification:SansSerif"
       x="3.1363945"
       y="1038.0304"
       id="text3140-7-6"
       sodipodi:linespacing="125%"><tspan
         sodipodi:role="line"
         id="tspan3142-7-2"
         x="3.1363945"
         y="1038.0304">upsidedown.brunettoziosi.eu</tspan></text>
    <g
       id="g4221">
      <path
         d="m 948.63005,1002.4615 c 0,0 19.50144,26.334 33.93997,32.2711 8.57808,3.527 18.93848,3.2312 27.82068,0.5563 25.9105,-7.8042 52.2621,-35.59231 73.9992,-55.08219 17.5927,-15.77393 20.684,-31.62939 41.172,-43.39712 0,0 19.7754,-17.99502 29.4895,-20.58623 12.9021,-3.44219 33.7417,-5.11468 44.5097,2.78207 0,0 17.4051,13.04006 25.0375,20.02992 14.9249,13.6688 18.9942,29.61624 35.6089,41.17191 5.5421,3.85474 12.1805,7.67257 18.917,7.23304 7.7839,-0.50803 20.5863,-11.12771 20.5863,-11.12771 v -4.45097 c 0,0 -9.4586,-2.64282 -15.5787,-8.62407 -6.1202,-5.98108 -15.3586,-13.54514 -9.4585,-13.63134 10.4483,-0.15301 22.2923,4.40057 22.2923,4.40057 0,0 7.4668,12.60439 14.4292,15.07278 2.7969,0.99165 7.7265,-0.41307 11.1277,1.11277 5.7483,2.57885 8.2905,8.45497 13.9097,12.79689 7.4903,5.78775 16.1036,5.9775 23.9246,13.35319 2.6884,2.53531 -3.3383,10.57139 -3.3383,10.57139 0,0 -18.1633,-1.3658 -27.263,-1.6691 l -16.6916,-0.5564 c 0,0 -16.586,14.2339 -23.3683,22.2554 -5.7973,6.8568 -5.1592,17.9228 -12.7968,20.0299 0,0 -11.6835,1.088 -16.1353,4.451 -4.3516,3.2874 -9.1933,9.4874 -13.0145,15.6558 l -17.5868,28.2998 c 0,0 -9.5448,0.044 -11.684,-3.8947 -1.7905,-3.2959 -0.5564,-12.2405 -0.5564,-12.2405 l 5.5638,7.7893 h 4.451 l 7.7893,-41.1719 -18.917,-3.8947 -13.3532,24.4812 6.6767,59.5326 99.592,32.2711 v 7.7894 l -114.0586,-22.8118 c 0,0 -6.8984,-29.9687 -11.7385,-44.6749 -4.8041,-14.5964 -17.1936,-43.2319 -17.1936,-43.2319 l -12.7969,-1.6692 -46.1814,-42.8408 h -6.1202 l -71.752,39.4699 c 0,0 -32.92653,5.5636 -46.7377,-1.6691 -17.01956,-8.8954 -34.49353,-46.1621 -34.49353,-46.1621 z"
         id="path2844"
         inkscape:connector-curvature="0"
         style="stroke:#000000;stroke-width:0.97581553" />
      <path
         d="m 1168.6395,765.99868 c -3.5802,0.0127 -7.1603,1.39682 -9.8868,4.14831 L 895.57474,1035.1564 c -5.46499,5.5079 -5.43442,14.3482 0.0686,19.8011 l 265.00939,263.1697 c 5.508,5.4804 14.3482,5.4529 19.8011,-0.055 l 263.1697,-265.0149 c 5.4804,-5.5079 5.4529,-14.3482 -0.055,-19.801 l -265.015,-263.17805 c -2.7539,-2.73277 -6.3341,-4.09213 -9.9143,-4.07974 z m 0.028,10.64577 c 3.5801,-0.0124 7.1603,1.34724 9.9143,4.07808 l 254.3295,252.56147 c 5.5079,5.4804 5.5354,14.2931 0.083,19.801 l -252.567,254.3295 c -5.4804,5.508 -14.2931,5.5355 -19.801,0.083 L 906.29045,1054.9302 c -5.50436,-5.4804 -5.53493,-14.2931 -0.0716,-19.8011 L 1158.7803,780.79413 c 2.7264,-2.75287 6.3066,-4.13702 9.8868,-4.14968 z"
         id="rect3605"
         inkscape:connector-curvature="0" />
    </g>
    <g
       id="g4324"
       transform="matrix(0.89133033,0,0,0.89133033,36.116783,92.749106)">
      <path
         d="m 243.40481,1026.5506 h -55.93657 c -4.45513,0 -3.47994,-3.9006 1.43059,-5.3411 4.71748,-1.3861 23.42406,-4.7373 34.95293,-6.0441 13.11787,-1.4851 29.20582,-2.7226 29.20582,-2.7226 l -9.65277,14.1078 z"
         id="path3254"
         inkscape:connector-curvature="0"
         style="fill:#ffffff;fill-opacity:1;fill-rule:evenodd;stroke:#000000;stroke-width:1.98005533" />
      <path
         d="m 247.45897,1020.6353 c -5.91542,0.084 -14.4445,0.2474 -22.32513,0.5841 -11.58827,0.5 -30.48295,2.5394 -35.28459,3.5889 -1.56424,0.3415 -2.77207,0.9405 -3.53934,1.6236 0.33166,0.074 0.71777,0.1287 1.15833,0.1287 h 55.93657 l 4.05416,-5.9253 z"
         id="path3256"
         inkscape:connector-curvature="0"
         style="fill:#ffffff;fill-opacity:1;fill-rule:evenodd" />
      <path
         d="m 331.36381,964.72342 a 60.144183,60.144183 0 0 1 -120.28836,0 60.144183,60.144183 0 1 1 120.28836,0 z"
         id="path2385"
         inkscape:connector-curvature="0"
         style="fill:#ffffff;fill-opacity:1;stroke:#000000;stroke-width:1.98005533;stroke-linecap:round;stroke-linejoin:round" />
      <path
         d="m 271.21964,904.58419 c -6.40054,0 -12.56345,1.00983 -18.35017,2.86118 5.20754,-1.21774 10.69726,-1.87115 16.37011,-1.87115 15.56323,0 29.75529,4.89074 40.43769,12.91492 -10.42995,-8.68255 -23.83988,-13.90495 -38.45763,-13.90495 z m 56.95629,40.77429 c 0.78707,3.21264 1.20783,6.52924 1.20783,9.93493 0,27.44359 -26.94855,49.71429 -60.14418,49.71429 -27.76533,0 -51.13988,-15.57315 -58.05523,-36.72018 1.84146,31.54227 28.02769,56.58508 60.03529,56.58508 33.19563,0 60.14417,-26.94361 60.14417,-60.14422 0,-6.77179 -1.11872,-13.29112 -3.18788,-19.3699 z"
         id="path3276"
         inkscape:connector-curvature="0"
         style="fill-opacity:0.31373004" />
      <path
         d="m 271.21964,904.58419 c -10.25669,0 -19.91936,2.56417 -28.36925,7.09851 3.99971,13.98413 15.69689,26.91884 29.51273,26.91884 13.44953,0 24.90909,-12.25159 29.20582,-25.80506 -8.91026,-5.2224 -19.28574,-8.21229 -30.3493,-8.21229 z"
         id="path3236"
         inkscape:connector-curvature="0"
         style="fill-opacity:0.31373004" />
      <path
         d="m 229.65332,854.49374 c -2.04441,0 -3.49974,0.29701 -3.9304,0.85142 -1.85631,2.41072 3.03938,24.97345 15.88994,25.86448 0.82667,0.0594 1.60384,0.0594 2.33151,0.0445 -2.27706,4.31652 -3.56905,9.23201 -3.56905,14.44946 0,17.11757 13.88019,36.94783 30.99777,36.95279 17.11758,0 31.01757,-19.83522 31.01757,-36.95279 0,-5.2125 -1.30189,-10.11809 -3.57401,-14.42966 0.52472,-0.005 1.07913,-0.0248 1.65335,-0.0643 12.84561,-0.89102 17.74626,-23.45376 15.88995,-25.86448 -1.96521,-2.54437 -25.34471,0.20296 -28.66625,13.08818 -0.0396,0.0792 -0.11881,0.36135 -0.20296,0.78706 -4.69768,-2.86612 -10.21213,-4.52937 -16.11765,-4.52937 -6.16292,0 -11.89519,1.8167 -16.72157,4.91548 -0.099,-0.62866 -0.21286,-1.07417 -0.26236,-1.17317 -2.59882,-10.06859 -17.43438,-13.93465 -24.73584,-13.9396 z"
         id="path2387"
         inkscape:connector-curvature="0"
         style="fill:#ffffff;fill-opacity:1;stroke:#000000;stroke-width:1.98005533;stroke-linecap:round;stroke-linejoin:round" />
      <path
         d="m 300.3611,990.59289 c -15.04842,0 -27.27031,12.22191 -27.27031,27.27031 0,3.1136 0.52472,6.0937 1.48504,8.8806 h 51.55569 c 0.96528,-2.7869 1.48505,-5.767 1.48505,-8.8806 0,-15.0484 -12.2021,-27.27031 -27.25547,-27.27031 z"
         id="path3163"
         inkscape:connector-curvature="0"
         style="fill:#ffffff;fill-opacity:1;stroke:#000000;stroke-width:1.98005533;stroke-linecap:round;stroke-linejoin:round" />
      <path
         d="m 245.82047,990.59289 c -15.05336,0 -27.26041,12.22191 -27.26041,27.27031 0,3.1136 0.52472,6.0937 1.48504,8.8806 h 51.56064 c 0.96034,-2.7869 1.48505,-5.767 1.48505,-8.8806 0,-15.0484 -12.22189,-27.27031 -27.27032,-27.27031 z"
         id="path3165"
         inkscape:connector-curvature="0"
         style="fill:#ffffff;fill-opacity:1;stroke:#000000;stroke-width:1.98005533;stroke-linecap:round;stroke-linejoin:round" />
      <path
         d="m 270.29184,893.2156 a 10.130205,10.130205 0 0 1 -20.26041,0 10.130205,10.130205 0 1 1 20.26041,0 z"
         id="path3177"
         inkscape:connector-curvature="0"
         style="fill:#ffffff;stroke:#000000;stroke-width:1.98013544;stroke-linecap:round;stroke-linejoin:round" />
      <path
         d="m 292.73082,893.2156 a 10.130202,10.130202 0 1 1 -20.2604,0 10.130202,10.130202 0 1 1 20.2604,0 z"
         id="path3179"
         inkscape:connector-curvature="0"
         style="fill:#ffffff;stroke:#000000;stroke-width:1.98013544;stroke-linecap:round;stroke-linejoin:round" />
      <path
         d="m 267.15889,894.45388 a 3.272045,3.272045 0 0 1 -6.54409,0 3.272045,3.272045 0 1 1 6.54409,0 z"
         id="path3181"
         inkscape:connector-curvature="0" />
      <path
         d="m 282.12578,894.45388 a 3.2720436,3.2720436 0 0 1 -6.54408,0 3.2720436,3.2720436 0 1 1 6.54408,0 z"
         id="path3183"
         inkscape:connector-curvature="0" />
      <path
         d="m 266.14079,912.65292 c 1.65335,-1.76225 8.6677,-2.14837 10.13789,0.2178 1.46524,2.36617 -2.20777,7.27176 -5.06895,7.05395 -2.85622,-0.22275 -6.61338,-5.62336 -5.06894,-7.27175 z"
         id="path3192"
         inkscape:connector-curvature="0"
         style="fill-rule:evenodd" />
      <path
         d="m 255.01783,975.32168 c 17.13738,9.34587 32.40856,-0.62371 32.40856,-0.62371"
         id="path3194"
         inkscape:connector-curvature="0"
         style="fill:#ffffff;fill-opacity:1;fill-rule:evenodd;stroke:#000000;stroke-width:1.98005533;stroke-linecap:round" />
      <path
         d="m 247.69163,876.69511 c -1.08903,-15.74144 -17.29579,-19.32534 -18.07295,-17.45419 -0.77718,1.87116 2.96018,22.9043 18.07295,17.45419 z"
         id="path3216"
         inkscape:connector-curvature="0"
         style="fill:#a1a1a1;fill-opacity:1;fill-rule:evenodd;stroke:#000000;stroke-width:1.98005533;stroke-linejoin:round" />
      <path
         d="m 293.87146,876.69511 c 1.08904,-15.74144 17.29579,-19.32534 18.07296,-17.45419 0.78212,1.87116 -2.96018,22.9043 -18.07296,17.45419 z"
         id="path3218"
         inkscape:connector-curvature="0"
         style="fill:#a1a1a1;fill-opacity:1;fill-rule:evenodd;stroke:#000000;stroke-width:1.98005533;stroke-linejoin:round" />
      <path
         d="m 243.40552,1018.878 a 7.3014806,8.6627442 0 0 1 -14.60296,0 7.3014806,8.6627442 0 1 1 14.60296,0 z"
         id="path3220"
         inkscape:connector-curvature="0"
         style="fill:#ffffff;fill-opacity:1;stroke:#000000;stroke-width:1.8178376;stroke-linecap:round;stroke-linejoin:round" />
      <path
         d="m 261.72104,1018.878 a 7.301485,8.6627494 0 0 1 -14.60297,0 7.301485,8.6627494 0 1 1 14.60297,0 z"
         id="path3224"
         inkscape:connector-curvature="0"
         style="fill:#ffffff;fill-opacity:1;stroke:#000000;stroke-width:1.8178376;stroke-linecap:round;stroke-linejoin:round" />
      <path
         d="m 253.05829,1018.878 a 7.3014806,8.6627442 0 0 1 -14.60296,0 7.3014806,8.6627442 0 1 1 14.60296,0 z"
         id="path3222"
         inkscape:connector-curvature="0"
         style="fill:#ffffff;fill-opacity:1;stroke:#000000;stroke-width:1.8178376;stroke-linecap:round;stroke-linejoin:round" />
      <path
         d="m 299.59009,1018.878 a 7.301485,8.6627494 0 0 1 -14.60297,0 7.301485,8.6627494 0 1 1 14.60297,0 z"
         id="path3226"
         inkscape:connector-curvature="0"
         style="fill:#ffffff;fill-opacity:1;stroke:#000000;stroke-width:1.8178376;stroke-linecap:round;stroke-linejoin:round" />
      <path
         d="m 317.9056,1018.878 a 7.3014806,8.6627442 0 0 1 -14.60296,0 7.3014806,8.6627442 0 1 1 14.60296,0 z"
         id="path3228"
         inkscape:connector-curvature="0"
         style="fill:#ffffff;fill-opacity:1;stroke:#000000;stroke-width:1.8178376;stroke-linecap:round;stroke-linejoin:round" />
      <path
         d="m 309.24285,1018.878 a 7.3014791,8.6627425 0 0 1 -14.60295,0 7.3014791,8.6627425 0 1 1 14.60295,0 z"
         id="path3230"
         inkscape:connector-curvature="0"
         style="fill:#ffffff;fill-opacity:1;stroke:#000000;stroke-width:1.8178376;stroke-linecap:round;stroke-linejoin:round" />
      <path
         d="m 299.94529,883.69956 c 0.56432,2.33647 0.86627,4.78183 0.86627,7.2866 0,17.11758 -13.89998,36.93794 -31.01757,36.93794 -12.47434,0 -23.22109,-10.5339 -28.13658,-22.8746 3.80665,14.2465 15.67213,27.61188 29.71568,27.61188 17.11758,0 31.01757,-19.84016 31.01757,-36.95773 0,-4.25712 -0.87123,-8.31129 -2.43052,-12.00409 h -0.0149 z"
         id="path3246"
         inkscape:connector-curvature="0"
         style="fill-opacity:0.31373004" />
      <path
         d="m 266.55498,955.66368 a 11.37477,11.37477 0 0 1 -22.74954,0 11.37477,11.37477 0 1 1 22.74954,0 z"
         id="path3242"
         inkscape:connector-curvature="0"
         style="fill:#ffffff;fill-opacity:1" />
      <path
         d="m 264.67888,953.35196 a 11.37477,11.37477 0 0 1 -22.74954,0 11.37477,11.37477 0 1 1 22.74954,0 z"
         id="path3159"
         inkscape:connector-curvature="0"
         style="fill:#ffffff;fill-opacity:1;stroke:#000000;stroke-width:1.98005044;stroke-linecap:round;stroke-linejoin:round" />
      <path
         d="m 301.73066,955.83693 a 11.374767,11.374767 0 1 1 -22.74953,0 11.374767,11.374767 0 1 1 22.74953,0 z"
         id="path3244"
         inkscape:connector-curvature="0"
         style="fill:#ffffff;fill-opacity:1" />
      <path
         d="m 299.88921,953.35196 a 11.374767,11.374767 0 1 1 -22.74953,0 11.374767,11.374767 0 1 1 22.74953,0 z"
         id="path3161"
         inkscape:connector-curvature="0"
         style="fill:#ffffff;fill-opacity:1;stroke:#000000;stroke-width:1.98005044;stroke-linecap:round;stroke-linejoin:round" />
      <g
         transform="matrix(0.93520361,0,0,0.93520361,-108.36743,17.456522)"
         id="g4319">
        <path
           inkscape:connector-curvature="0"
           id="path4309"
           d="m 372.50838,1039.7274 0,-33.5775 33.57759,0 33.57758,0 0,33.5775 0,33.5776 -33.57758,0 -33.57759,0 0,-33.5776 z"
           style="fill:#fdfdfd;stroke:#000000;stroke-opacity:1" />
        <path
           inkscape:connector-curvature="0"
           id="path4297"
           d="m 380.82283,1057.902 0,-6.982 6.98201,0 6.982,0 0,6.982 0,6.982 -6.982,0 -6.98201,0 0,-6.982 z m 12.09859,0 0,-5.1166 -5.11658,0 -5.11659,0 -0.0278,5.01 c -0.0153,2.7555 -0.005,5.0704 0.0237,5.1443 0.0406,0.1059 1.12698,0.1284 5.14436,0.1065 l 5.09288,-0.028 0,-5.1165 z m -8.04796,0 0,-2.9314 2.93138,0 2.93137,0 0,2.9314 0,2.9314 -2.93137,0 -2.93138,0 0,-2.9314 z m 12.15189,3.0419 0,-3.94 0.98601,-0.031 0.98601,-0.031 0.0306,-0.986 0.0307,-0.986 0.90207,0 0.90206,0 0,2.9274 0,2.9274 -0.98601,0.031 -0.98601,0.031 0,1.0659 0,1.066 0.98601,0.031 0.98601,0.031 0,0.902 0,0.9021 -1.91872,0 -1.91872,0 0,-3.94 z m 6.05329,2.9541 -0.0306,-0.986 -0.986,-0.031 -0.98601,-0.031 0,-0.8981 0,-0.8981 0.98601,-0.031 0.986,-0.031 0.0279,-4.0239 0.0279,-4.024 0.90478,0 0.90478,0 0,5.9693 0,5.9694 -0.90206,0 -0.90207,0 -0.0307,-0.986 z m 4.07328,-2.9581 0,-3.944 0.90371,0 0.90371,0 0.029,1.9987 0.029,1.9986 1.06596,0 1.06595,0 0.0307,-0.986 0.0306,-0.986 0.90206,0 0.90207,0 0,1.9147 0,1.9148 -0.98601,0.031 -0.98601,0.031 -0.0306,0.986 -0.0307,0.986 -1.91472,0 -1.91472,0 0,-3.9441 z m 8.07627,0.9328 -0.0283,-3.0114 -0.98367,-0.031 -0.98367,-0.031 -0.029,-1.9947 -0.029,-1.9947 -1.06596,0 -1.06595,0 -0.0306,0.986 -0.0307,0.9861 -0.9004,0 -0.9004,0 -0.0283,-3.0114 -0.0283,-3.0113 -3.01132,-0.028 -3.01133,-0.028 0,-0.902 0,-0.9021 1.99867,-0.029 1.99866,-0.029 0.0306,-0.986 0.0306,-0.986 0.89806,0 0.89807,0 0.0306,0.986 0.0307,0.986 0.98367,0.031 0.98368,0.031 0.029,1.9947 0.029,1.9947 1.06595,0 1.06596,0 0,-2.0786 0,-2.0786 -0.98601,-0.031 -0.98601,-0.031 0,-0.8981 0,-0.898 0.98601,-0.031 0.98601,-0.031 0.029,-1.9947 0.029,-1.9947 0.98367,-0.031 0.98367,-0.031 0.0283,-3.0113 0.0283,-3.0114 0.9004,0 0.9004,0 0.0307,0.986 0.0306,0.986 0.98206,0.031 0.98206,0.031 0.0306,0.9821 0.0306,0.9821 1.06595,0 1.06596,0 0.0306,-0.986 0.0306,-0.986 0.90206,0 0.90206,0 0,1.917 0,1.9171 -3.01132,0.028 -3.01133,0.028 -0.0306,0.982 -0.0306,0.9821 -0.98206,0.031 -0.98206,0.031 0,1.066 0,1.0659 1.06595,0 1.06596,0 0.0306,-0.986 0.0307,-0.986 0.89806,0 0.89806,0 0.0306,0.986 0.0307,0.986 1.06595,0 1.06596,0 0.0306,-0.986 0.0306,-0.986 0.89806,0 0.89806,0 0.0306,0.986 0.0306,0.986 1.99469,0.029 1.9947,0.029 0.0306,0.9837 0.0306,0.9837 0.98206,0.031 0.98206,0.031 0.0306,0.982 0.0306,0.9821 0.98601,0.031 0.98601,0.031 0,3.936 0,3.936 -0.98601,0.031 -0.98601,0.031 -0.0306,0.986 -0.0306,0.9861 -0.90206,0 -0.90206,0 0,-2.9274 0,-2.9274 0.98601,-0.031 0.98601,-0.031 0,-1.066 0,-1.0659 -0.98206,-0.031 -0.98206,-0.031 -0.0306,-0.9821 -0.0306,-0.982 -2.07861,0 -2.07861,0 0,1.0659 0,1.066 0.98601,0.031 0.986,0.031 0,2.9234 0,2.9233 -0.986,0.031 -0.98601,0.031 0,1.066 0,1.0659 1.99469,0.029 1.9947,0.029 0.0306,0.9837 0.0306,0.9837 1.99866,0.029 1.99867,0.029 0,0.9037 0,0.9037 -2.92738,0 -2.92737,0 -0.0306,-0.986 -0.0307,-0.986 -1.9947,-0.029 -1.9947,-0.029 -0.0306,-0.9837 -0.0306,-0.9837 -1.06596,0 -1.06595,0 -0.0306,0.9821 -0.0306,0.9821 -0.98206,0.031 -0.98206,0.031 -0.0306,0.986 -0.0307,0.986 -0.9004,0 -0.9004,0 -0.0283,-3.0113 z m 6.04764,-3.9707 0,-1.066 -1.06596,0 -1.06595,0 -0.0311,0.9509 c -0.0171,0.5231 -0.006,1.0165 0.0248,1.0965 0.0431,0.1123 0.29394,0.1386 1.09702,0.1151 l 1.04116,-0.03 0,-1.066 z m 0,-6.076 0,-3.0912 -3.09127,0 -3.09127,0 -0.0284,2.9832 c -0.0156,1.6408 -0.005,3.0446 0.0239,3.1196 0.0412,0.1072 0.7065,0.1302 3.11965,0.108 l 3.06734,-0.028 0,-3.0913 z m -3.99733,0 0,-0.906 0.90606,0 0.90606,0 0,0.906 0,0.9061 -0.90606,0 -0.90606,0 0,-0.9061 z m -18.22784,0 0,-0.906 0.90606,0 0.90607,0 0,0.906 0,0.9061 -0.90607,0 -0.90606,0 0,-0.9061 z m -2.04796,-2.1052 -0.0306,-0.986 -1.99867,-0.029 -1.99866,-0.029 0,-0.9021 0,-0.902 3.01132,-0.028 3.01133,-0.028 0.029,-1.9987 0.029,-1.9987 1.91236,0 1.91237,0 0.0306,0.986 0.0307,0.986 0.98601,0.031 0.98601,0.031 0,0.8981 0,0.8981 -0.98601,0.031 -0.98601,0.031 -0.0306,0.9836 -0.0306,0.9837 -1.99469,0.029 -1.9947,0.029 -0.0307,0.986 -0.0306,0.986 -0.89806,0 -0.89806,0 -0.0307,-0.986 z m -10.10393,-1.9454 0,-0.9061 0.90607,0 0.90606,0 0,0.9061 0,0.9061 -0.90606,0 -0.90607,0 0,-0.9061 z m -6.07594,-2.0253 0,-0.9061 0.90606,0 0.90606,0 0,0.9061 0,0.9061 -0.90606,0 -0.90606,0 0,-0.9061 z m 8.07861,-0.08 -0.0307,-0.986 -3.01132,-0.028 -3.01133,-0.028 0,-2.9297 0,-2.9298 0.90207,0 0.90206,0 0.0306,0.9861 0.0306,0.986 0.98206,0.031 0.98206,0.031 0.0306,0.982 0.0306,0.9821 1.99867,0.029 1.99866,0.029 0,1.9163 0,1.9164 -0.90206,0 -0.90206,0 -0.0306,-0.986 z m 38.50363,-0.9327 0,-1.9187 0.90206,0 0.90206,0 0.0306,0.986 0.0306,0.986 0.98601,0.031 0.98601,0.031 0,0.902 0,0.9021 -1.91872,0 -1.91872,0 0,-1.9187 z m -34.43035,-1.0127 0,-0.906 0.90606,0 0.90606,0 0,0.906 0,0.9061 -0.90606,0 -0.90606,0 0,-0.9061 z m 12.15189,-1.0126 0,-1.9188 0.90206,0 0.90206,0 0.0306,0.986 0.0306,0.9861 1.99866,0.029 1.99867,0.029 0,0.9037 0,0.9037 -2.93138,0 -2.93137,0 0,-1.9187 z m -8.12556,-2.1053 -0.029,-1.9987 -0.98601,-0.031 -0.98601,-0.031 0,-0.898 0,-0.8981 0.98601,-0.031 0.98601,-0.031 0.0306,-0.9844 0.0306,-0.9843 3.00735,-0.028 3.00734,-0.028 0,-1.066 0,-1.0659 -0.986,-0.031 -0.98601,-0.031 0,-2.9274 0,-2.9274 0.90206,0 0.90206,0 0.0306,0.986 0.0307,0.986 0.98435,0.031 0.98436,0.031 0.0283,3.0074 0.0283,3.0073 0.98601,0.031 0.98601,0.031 0,0.8981 0,0.8981 -0.98601,0.031 -0.98601,0.031 -0.0306,0.982 -0.0306,0.9821 -0.98206,0.031 -0.98206,0.031 -0.0306,0.9836 -0.0306,0.9837 -1.99469,0.029 -1.9947,0.029 -0.0307,0.986 -0.0306,0.986 -0.89971,0 -0.89971,0 -0.029,-1.9986 z m 14.2015,1.0926 0,-0.9061 0.90606,0 0.90607,0 0,0.9061 0,0.9061 -0.90607,0 -0.90606,0 0,-0.9061 z m 14.17721,-2.0253 0,-2.9314 0.90606,0 0.90606,0 0,2.9314 0,2.9314 -0.90606,0 -0.90606,0 0,-2.9314 z m -38.48099,-1.0103 0,-1.9164 1.99867,-0.029 1.99867,-0.029 0.0306,-0.986 0.0306,-0.986 1.91472,0 1.91472,0 0,0.9021 0,0.902 -0.98601,0.031 -0.986,0.031 0,1.066 0,1.0659 0.986,0.031 0.98601,0.031 0,0.9021 0,0.9021 -1.91472,0 -1.91472,0 -0.0306,-0.9861 -0.0306,-0.986 -1.06596,0 -1.06595,0 -0.0306,0.986 -0.0307,0.9861 -0.90206,0 -0.90207,0 0,-1.9164 z m 20.25315,0 0,-1.9187 2.93138,0 2.93138,0 0,0.902 0,0.9021 -0.98601,0.031 -0.98601,0.031 -0.0306,0.986 -0.0307,0.986 -1.91472,0 -1.91472,0 0,-1.9187 z m 22.27846,0 0,-1.9187 0.90607,0 0.90606,0 0,1.9187 0,1.9187 -0.90606,0 -0.90607,0 0,-1.9187 z m -48.60755,-4.0507 0,-3.944 3.94003,0 3.94004,0 0.0307,0.986 0.0306,0.986 0.986,0.031 0.98601,0.031 0,0.9021 0,0.9021 -2.92737,0 -2.92738,0 -0.0306,-0.986 -0.0306,-0.9861 -1.06595,0 -1.06596,0 0,1.066 0,1.066 0.98601,0.031 0.98601,0.031 0,0.898 0,0.8981 -0.98601,0.031 -0.98601,0.031 -0.0307,0.986 -0.0306,0.986 -0.90206,0 -0.90206,0 0,-3.944 z m 40.5063,1.0167 0,-0.9021 0.986,-0.031 0.98601,-0.031 0,-1.0659 0,-1.066 -0.98601,-0.031 -0.986,-0.031 0,-0.902 0,-0.9021 2.93137,0 2.93138,0 0,1.9147 0,1.9148 -0.98601,0.031 -0.98601,0.031 -0.0307,0.986 -0.0306,0.986 -1.91472,0 -1.91471,0 0,-0.9021 z m -8.10126,-3.042 0,-1.9187 1.91872,0 1.91871,0 0,0.9021 0,0.902 -0.986,0.031 -0.98601,0.031 -0.0306,0.986 -0.0307,0.9861 -0.90206,0 -0.90206,0 0,-1.9188 z m 6.07594,1.0127 0,-0.9061 0.90606,0 0.90606,0 0,0.9061 0,0.9061 -0.90606,0 -0.90606,0 0,-0.9061 z m 10.12657,-1.0127 0,-1.9187 0.90607,0 0.90606,0 0,1.9187 0,1.9188 -0.90606,0 -0.90607,0 0,-1.9188 z m -36.45566,-1.0126 0,-0.9061 0.90606,0 0.90606,0 0,0.9061 0,0.906 -0.90606,0 -0.90606,0 0,-0.906 z m 4.05063,0 0,-0.9061 0.90606,0 0.90606,0 0,0.9061 0,0.906 -0.90606,0 -0.90606,0 0,-0.906 z m 12.12652,-3.1179 -0.0279,-4.024 -0.98206,-0.031 -0.98206,-0.031 -0.0306,-0.9821 -0.0306,-0.982 -2.07861,0 -2.07861,0 -0.0307,0.986 -0.0306,0.986 -0.90206,0 -0.90206,0 0,-1.9148 0,-1.9147 0.98601,-0.031 0.986,-0.031 0,-1.0659 0,-1.066 -0.986,-0.031 -0.98601,-0.031 0,-0.898 0,-0.8981 0.98601,-0.031 0.986,-0.031 0.0306,-0.986 0.0307,-0.986 0.89971,0 0.89971,0 0.029,1.9986 0.029,1.9987 5.03664,0.028 5.03664,0.028 0,4.9556 0,4.9557 -0.90371,0 -0.90371,0 -0.029,-1.9987 -0.029,-1.9986 -1.06596,0 -1.06595,0 0,2.0786 0,2.0786 0.98601,0.031 0.98601,0.031 0,0.8981 0,0.898 -0.98601,0.031 -0.98601,0.031 -0.0306,0.986 -0.0307,0.986 -0.90078,0 -0.90078,0 -0.0279,-4.0239 z m -28.32904,-7.0087 0,-6.982 6.98201,0 6.982,0 0,6.982 0,6.982 -6.982,0 -6.98201,0 0,-6.982 z m 12.09859,0 0,-5.1166 -5.11658,0 -5.11659,0 -0.0278,5.01 c -0.0153,2.7555 -0.005,5.0704 0.0237,5.1443 0.0406,0.1059 1.12698,0.1284 5.14436,0.1066 l 5.09288,-0.028 0,-5.1166 z m -8.04796,0 0,-2.9314 2.93138,0 2.93137,0 0,2.9314 0,2.9314 -2.93137,0 -2.93138,0 0,-2.9314 z m 12.15189,6.0759 0,-0.906 0.90606,0 0.90606,0 0,0.906 0,0.9061 -0.90606,0 -0.90606,0 0,-0.9061 z m 8.10126,-1.0126 0,-1.9187 0.90606,0 0.90606,0 0,1.9187 0,1.9187 -0.90606,0 -0.90606,0 0,-1.9187 z m 12.15189,-5.0633 0,-6.982 6.982,0 6.98201,0 0,6.982 0,6.982 -6.98201,0 -6.982,0 0,-6.982 z m 12.09859,0 0,-5.1166 -5.11659,0 -5.11658,0 -0.0278,5.01 c -0.0153,2.7555 -0.005,5.0704 0.0237,5.1443 0.0406,0.1059 1.12697,0.1284 5.14435,0.1066 l 5.09289,-0.028 0,-5.1166 z m -8.04796,0 0,-2.9314 2.93137,0 2.93138,0 0,2.9314 0,2.9314 -2.93138,0 -2.93137,0 0,-2.9314 z m -24.30378,0 0,-2.9314 0.90606,0 0.90606,0 0,2.9314 0,2.9314 -0.90606,0 -0.90606,0 0,-2.9314 z m 0,-6.0759 0,-0.9061 1.91872,0 1.91872,0 0,0.9061 0,0.906 -1.91872,0 -1.91872,0 0,-0.906 z m 12.15189,0 0,-0.9061 0.90606,0 0.90606,0 0,0.9061 0,0.906 -0.90606,0 -0.90606,0 0,-0.906 z m 4.05063,0 0,-0.9061 0.90606,0 0.90606,0 0,0.9061 0,0.906 -0.90606,0 -0.90606,0 0,-0.906 z"
           style="fill:#1a1a1a" />
        <path
           inkscape:connector-curvature="0"
           id="path4295"
           d="m 380.92943,1057.902 0,-6.8754 6.87541,0 6.87541,0 0,6.8754 0,6.8754 -6.87541,0 -6.87541,0 0,-6.8754 z m 12.02397,5.1485 c 0.18421,-0.1842 0.18421,-10.1129 0,-10.2971 -0.18421,-0.1842 -10.11291,-0.1842 -10.29713,0 -0.18421,0.1842 -0.18421,10.1129 0,10.2971 0.18422,0.1843 10.11292,0.1843 10.29713,0 z m -7.97334,-5.1485 0,-2.8248 2.82478,0 2.82478,0 0,2.8248 0,2.8248 -2.82478,0 -2.82478,0 0,-2.8248 z m 12.15188,3.0379 0,-3.8374 0.88475,0 c 0.546,0 0.93371,-0.049 1.01265,-0.1279 0.0789,-0.079 0.12792,-0.4667 0.12792,-1.0127 l 0,-0.8847 0.79946,0 0.79947,0 0,2.8248 0,2.8248 -0.88474,0 c -0.54601,0 -0.93372,0.049 -1.01266,0.1279 -0.0807,0.081 -0.12791,0.4856 -0.12791,1.0979 0,0.6123 0.0472,1.0172 0.12791,1.0979 0.0789,0.079 0.46665,0.128 1.01266,0.128 l 0.88474,0 0,0.7994 0,0.7995 -1.81212,0 -1.81213,0 0,-3.8375 z m 6.07595,2.9527 c 0,-0.546 -0.049,-0.9337 -0.12792,-1.0126 -0.0789,-0.079 -0.46665,-0.1279 -1.01265,-0.1279 l -0.88475,0 0,-0.7995 0,-0.7995 0.88475,0 c 0.546,0 0.93371,-0.049 1.01265,-0.1279 0.0949,-0.095 0.12792,-1.1417 0.12792,-4.0506 l 0,-3.9227 0.79946,0 0.79947,0 0,5.8627 0,5.8628 -0.79947,0 -0.79946,0 0,-0.8848 z m 4.05063,-2.9527 0,-3.8374 0.79946,0 0.79947,0 0,1.8974 c 0,1.3336 0.038,1.9354 0.12791,2.0253 0.0808,0.081 0.48561,0.1279 1.09794,0.1279 0.61233,0 1.01719,-0.047 1.09793,-0.1279 0.0789,-0.079 0.12792,-0.4666 0.12792,-1.0126 l 0,-0.8848 0.79946,0 0.79947,0 0,1.8121 0,1.8122 -0.88474,0 c -0.54601,0 -0.93372,0.049 -1.01266,0.1279 -0.0789,0.079 -0.12791,0.4666 -0.12791,1.0126 l 0,0.8848 -1.81213,0 -1.81212,0 0,-3.8375 z m 8.10126,0.9274 c 0,-2.1212 -0.0347,-2.9447 -0.12792,-3.0379 -0.0789,-0.079 -0.46665,-0.128 -1.01266,-0.128 l -0.88474,0 0,-1.8974 c 0,-1.3336 -0.038,-1.9354 -0.12791,-2.0253 -0.17354,-0.1735 -2.02234,-0.1735 -2.19587,0 -0.0789,0.079 -0.12791,0.4667 -0.12791,1.0127 l 0,0.8847 -0.79947,0 -0.79947,0 0,-2.91 c 0,-2.1213 -0.0347,-2.9448 -0.12791,-3.038 -0.0932,-0.093 -0.91672,-0.1279 -3.03797,-0.1279 l -2.91006,0 0,-0.7995 0,-0.7994 1.8974,0 c 1.33363,0 1.93541,-0.038 2.02531,-0.128 0.0789,-0.079 0.12792,-0.4666 0.12792,-1.0126 l 0,-0.8848 0.79946,0 0.79947,0 0,0.8848 c 0,0.546 0.049,0.9337 0.12791,1.0126 0.079,0.079 0.46666,0.128 1.01266,0.128 l 0.88475,0 0,1.8974 c 0,1.3336 0.038,1.9354 0.12791,2.0253 0.17353,0.1735 2.02233,0.1735 2.19587,0 0.0903,-0.09 0.12791,-0.7107 0.12791,-2.1106 0,-1.4 -0.0376,-2.0203 -0.12791,-2.1106 -0.0789,-0.079 -0.46665,-0.1279 -1.01266,-0.1279 l -0.88474,0 0,-0.7995 0,-0.7995 0.88474,0 c 0.54601,0 0.93372,-0.049 1.01266,-0.1279 0.0899,-0.09 0.12791,-0.6917 0.12791,-2.0253 l 0,-1.8974 0.88474,0 c 0.54601,0 0.93372,-0.049 1.01266,-0.1279 0.0932,-0.093 0.12792,-0.9167 0.12792,-3.038 l 0,-2.91 0.79946,0 0.79947,0 0,0.8847 c 0,0.546 0.049,0.9337 0.12791,1.0127 0.0789,0.079 0.46666,0.1279 1.01266,0.1279 l 0.88474,0 0,0.8847 c 0,0.546 0.049,0.9337 0.12792,1.0127 0.17353,0.1735 2.02233,0.1735 2.19587,0 0.0789,-0.079 0.12791,-0.4667 0.12791,-1.0127 l 0,-0.8847 0.79947,0 0.79946,0 0,1.8121 0,1.8121 -2.91005,0 c -2.12125,0 -2.94473,0.035 -3.03798,0.1279 -0.0789,0.079 -0.12791,0.4667 -0.12791,1.0127 l 0,0.8847 -0.88474,0 c -0.54601,0 -0.93372,0.049 -1.01266,0.128 -0.17353,0.1735 -0.17353,2.0223 0,2.1958 0.17353,0.1736 2.02233,0.1736 2.19587,0 0.0789,-0.079 0.12791,-0.4666 0.12791,-1.0126 l 0,-0.8848 0.79947,0 0.79946,0 0,0.8848 c 0,0.546 0.049,0.9337 0.12792,1.0126 0.17353,0.1736 2.02233,0.1736 2.19587,0 0.0789,-0.079 0.12791,-0.4666 0.12791,-1.0126 l 0,-0.8848 0.79947,0 0.79946,0 0,0.8848 c 0,0.546 0.049,0.9337 0.12792,1.0126 0.0899,0.09 0.69168,0.1279 2.02531,0.1279 l 1.8974,0 0,0.8848 c 0,0.546 0.049,0.9337 0.12792,1.0126 0.0789,0.079 0.46665,0.128 1.01266,0.128 l 0.88474,0 0,0.8847 c 0,0.546 0.049,0.9337 0.12791,1.0127 0.0789,0.079 0.46665,0.1279 1.01266,0.1279 l 0.88474,0 0,3.8374 0,3.8374 -0.88474,0 c -0.54601,0 -0.93372,0.049 -1.01266,0.128 -0.0789,0.079 -0.12791,0.4666 -0.12791,1.0126 l 0,0.8848 -0.79947,0 -0.79946,0 0,-2.8248 0,-2.8248 0.88474,0 c 0.546,0 0.93372,-0.049 1.01266,-0.1279 0.0807,-0.081 0.12791,-0.4856 0.12791,-1.098 0,-0.6123 -0.0472,-1.0171 -0.12791,-1.0979 -0.0789,-0.079 -0.46666,-0.1279 -1.01266,-0.1279 l -0.88474,0 0,-0.8847 c 0,-0.546 -0.049,-0.9338 -0.12792,-1.0127 -0.18031,-0.1803 -4.04087,-0.1803 -4.22118,0 -0.0808,0.081 -0.12792,0.4856 -0.12792,1.0979 0,0.6124 0.0472,1.0172 0.12792,1.098 0.0789,0.079 0.46665,0.1279 1.01266,0.1279 l 0.88474,0 0,2.8248 0,2.8247 -0.88474,0 c -0.54601,0 -0.93372,0.049 -1.01266,0.128 -0.17353,0.1735 -0.17353,2.0223 0,2.1958 0.0899,0.09 0.69168,0.1279 2.02531,0.1279 l 1.8974,0 0,0.8848 c 0,0.546 0.049,0.9337 0.12792,1.0126 0.0899,0.09 0.69168,0.128 2.02531,0.128 l 1.8974,0 0,0.7994 0,0.7995 -2.82478,0 -2.82478,0 0,-0.8848 c 0,-0.546 -0.049,-0.9337 -0.12791,-1.0126 -0.0899,-0.09 -0.69169,-0.1279 -2.02532,-0.1279 l -1.8974,0 0,-0.8848 c 0,-0.546 -0.049,-0.9337 -0.12791,-1.0126 -0.0808,-0.081 -0.48561,-0.1279 -1.09794,-0.1279 -0.61233,0 -1.01718,0.047 -1.09793,0.1279 -0.0789,0.079 -0.12792,0.4666 -0.12792,1.0126 l 0,0.8848 -0.88474,0 c -0.546,0 -0.93372,0.049 -1.01266,0.1279 -0.0789,0.079 -0.12791,0.4666 -0.12791,1.0126 l 0,0.8848 -0.79947,0 -0.79946,0 0,-2.9101 z m 5.94803,-2.8674 c 0.17353,-0.1735 0.17353,-2.0223 0,-2.1959 -0.0808,-0.081 -0.48561,-0.1279 -1.09794,-0.1279 -0.61233,0 -1.01718,0.047 -1.09793,0.1279 -0.17353,0.1736 -0.17353,2.0224 0,2.1959 0.17353,0.1735 2.02233,0.1735 2.19587,0 z m 0,-4.0506 c 0.18249,-0.1825 0.18249,-6.064 0,-6.2465 -0.1825,-0.1825 -6.064,-0.1825 -6.2465,0 -0.1825,0.1825 -0.1825,6.064 0,6.2465 0.1825,0.1825 6.064,0.1825 6.2465,0 z m -3.92272,-3.1233 0,-0.7994 0.79947,0 0.79946,0 0,0.7994 0,0.7995 -0.79946,0 -0.79947,0 0,-0.7995 z m -18.22783,0 0,-0.7994 0.79946,0 0.79947,0 0,0.7994 0,0.7995 -0.79947,0 -0.79946,0 0,-0.7995 z m -2.02532,-2.1106 c 0,-0.546 -0.049,-0.9337 -0.12791,-1.0126 -0.0899,-0.09 -0.69169,-0.1279 -2.02532,-0.1279 l -1.8974,0 0,-0.7995 0,-0.7995 2.91006,0 c 2.12125,0 2.94473,-0.035 3.03797,-0.1279 0.0899,-0.09 0.12792,-0.6917 0.12792,-2.0253 l 0,-1.8974 1.81212,0 1.81213,0 0,0.8848 c 0,0.546 0.049,0.9337 0.12791,1.0126 0.0789,0.079 0.46665,0.1279 1.01266,0.1279 l 0.88474,0 0,0.7995 0,0.7995 -0.88474,0 c -0.54601,0 -0.93372,0.049 -1.01266,0.1279 -0.0789,0.079 -0.12791,0.4666 -0.12791,1.0126 l 0,0.8848 -1.8974,0 c -1.33363,0 -1.93541,0.038 -2.02532,0.1279 -0.0789,0.079 -0.12791,0.4666 -0.12791,1.0126 l 0,0.8848 -0.79947,0 -0.79947,0 0,-0.8848 z m -10.12657,-1.94 0,-0.7995 0.79947,0 0.79946,0 0,0.7995 0,0.7995 -0.79946,0 -0.79947,0 0,-0.7995 z m -6.07594,-2.0253 0,-0.7995 0.79946,0 0.79947,0 0,0.7995 0,0.7995 -0.79947,0 -0.79946,0 0,-0.7995 z m 8.10125,-0.085 c 0,-0.546 -0.049,-0.9337 -0.12791,-1.0127 -0.0932,-0.093 -0.91672,-0.1279 -3.03797,-0.1279 l -2.91006,0 0,-2.8248 0,-2.8248 0.79947,0 0.79946,0 0,0.8848 c 0,0.546 0.049,0.9337 0.12792,1.0126 0.0789,0.079 0.46665,0.128 1.01266,0.128 l 0.88474,0 0,0.8847 c 0,0.546 0.049,0.9337 0.12791,1.0127 0.0899,0.09 0.69169,0.1279 2.02532,0.1279 l 1.8974,0 0,1.8121 0,1.8121 -0.79947,0 -0.79947,0 0,-0.8847 z m 38.48099,-0.9274 0,-1.8121 0.79946,0 0.79947,0 0,0.8847 c 0,0.546 0.049,0.9337 0.12791,1.0127 0.0789,0.079 0.46665,0.1279 1.01266,0.1279 l 0.88474,0 0,0.7995 0,0.7994 -1.81212,0 -1.81212,0 0,-1.8121 z m -34.43036,-1.0127 0,-0.7994 0.79947,0 0.79947,0 0,0.7994 0,0.7995 -0.79947,0 -0.79947,0 0,-0.7995 z m 12.15189,-1.0126 0,-1.8121 0.79947,0 0.79947,0 0,0.8847 c 0,0.546 0.049,0.9337 0.12791,1.0127 0.0899,0.09 0.69169,0.1279 2.02531,0.1279 l 1.89741,0 0,0.7994 0,0.7995 -2.82479,0 -2.82478,0 0,-1.8121 z m -8.10126,-2.1106 c 0,-1.3336 -0.038,-1.9354 -0.12791,-2.0253 -0.0789,-0.079 -0.46665,-0.1279 -1.01266,-0.1279 l -0.88474,0 0,-0.7995 0,-0.7995 0.88474,0 c 0.54601,0 0.93372,-0.049 1.01266,-0.1279 0.0789,-0.079 0.12791,-0.4666 0.12791,-1.0126 l 0,-0.8848 2.91006,0 c 2.12125,0 2.94473,-0.035 3.03797,-0.1279 0.17354,-0.1735 0.17354,-2.0223 0,-2.1959 -0.0789,-0.079 -0.46665,-0.1279 -1.01265,-0.1279 l -0.88475,0 0,-2.8248 0,-2.8247 0.79947,0 0.79947,0 0,0.8847 c 0,0.546 0.049,0.9337 0.12791,1.0127 0.0789,0.079 0.46665,0.1279 1.01266,0.1279 l 0.88474,0 0,2.91 c 0,2.1213 0.0347,2.9448 0.12792,3.038 0.0789,0.079 0.46665,0.1279 1.01265,0.1279 l 0.88475,0 0,0.7995 0,0.7995 -0.88475,0 c -0.546,0 -0.93371,0.049 -1.01265,0.1279 -0.0789,0.079 -0.12792,0.4666 -0.12792,1.0126 l 0,0.8848 -0.88474,0 c -0.54601,0 -0.93372,0.049 -1.01266,0.1279 -0.0789,0.079 -0.12791,0.4666 -0.12791,1.0126 l 0,0.8848 -1.8974,0 c -1.33363,0 -1.93541,0.038 -2.02532,0.1279 -0.0789,0.079 -0.12791,0.4666 -0.12791,1.0127 l 0,0.8847 -0.79947,0 -0.79947,0 0,-1.8974 z m 14.17721,1.0979 0,-0.7994 0.79946,0 0.79947,0 0,0.7994 0,0.7995 -0.79947,0 -0.79946,0 0,-0.7995 z m 14.1772,-2.0253 0,-2.8248 0.79947,0 0.79946,0 0,2.8248 0,2.8248 -0.79946,0 -0.79947,0 0,-2.8248 z m -38.48098,-1.0126 0,-1.8122 1.8974,0 c 1.33363,0 1.93541,-0.038 2.02531,-0.1279 0.079,-0.079 0.12792,-0.4666 0.12792,-1.0126 l 0,-0.8848 1.81212,0 1.81213,0 0,0.7995 0,0.7995 -0.88475,0 c -0.546,0 -0.93371,0.049 -1.01265,0.1279 -0.17354,0.1735 -0.17354,2.0223 0,2.1958 0.0789,0.079 0.46665,0.1279 1.01265,0.1279 l 0.88475,0 0,0.7995 0,0.7995 -1.81213,0 -1.81212,0 0,-0.8848 c 0,-0.546 -0.049,-0.9337 -0.12792,-1.0126 -0.17353,-0.1736 -2.02233,-0.1736 -2.19586,0 -0.0789,0.079 -0.12792,0.4666 -0.12792,1.0126 l 0,0.8848 -0.79946,0 -0.79947,0 0,-1.8121 z m 20.25315,0 0,-1.8122 2.82478,0 2.82478,0 0,0.7995 0,0.7995 -0.88474,0 c -0.54601,0 -0.93372,0.049 -1.01266,0.1279 -0.0789,0.079 -0.12791,0.4666 -0.12791,1.0126 l 0,0.8848 -1.81213,0 -1.81212,0 0,-1.8121 z m 22.27846,0 0,-1.8122 0.79947,0 0.79946,0 0,1.8122 0,1.8121 -0.79946,0 -0.79947,0 0,-1.8121 z m -48.60755,-4.0507 0,-3.8374 3.83743,0 3.83744,0 0,0.8847 c 0,0.546 0.049,0.9337 0.12792,1.0127 0.0789,0.079 0.46665,0.1279 1.01265,0.1279 l 0.88475,0 0,0.7995 0,0.7994 -2.82478,0 -2.82478,0 0,-0.8847 c 0,-0.546 -0.049,-0.9337 -0.12792,-1.0127 -0.17353,-0.1735 -2.02233,-0.1735 -2.19587,0 -0.17353,0.1736 -0.17353,2.0224 0,2.1959 0.0789,0.079 0.46665,0.1279 1.01266,0.1279 l 0.88474,0 0,0.7995 0,0.7995 -0.88474,0 c -0.54601,0 -0.93372,0.049 -1.01266,0.1279 -0.0789,0.079 -0.12791,0.4666 -0.12791,1.0126 l 0,0.8848 -0.79947,0 -0.79946,0 0,-3.8375 z m 40.50629,1.0127 0,-0.7995 0.88474,0 c 0.54601,0 0.93372,-0.049 1.01266,-0.1279 0.17353,-0.1735 0.17353,-2.0223 0,-2.1959 -0.0789,-0.079 -0.46665,-0.1279 -1.01266,-0.1279 l -0.88474,0 0,-0.7994 0,-0.7995 2.82478,0 2.82478,0 0,1.8121 0,1.8121 -0.88474,0 c -0.54601,0 -0.93372,0.049 -1.01266,0.128 -0.0789,0.079 -0.12791,0.4666 -0.12791,1.0126 l 0,0.8848 -1.81213,0 -1.81212,0 0,-0.7995 z m -8.10126,-3.038 0,-1.8121 1.81213,0 1.81212,0 0,0.7995 0,0.7994 -0.88474,0 c -0.54601,0 -0.93372,0.049 -1.01266,0.1279 -0.0789,0.079 -0.12792,0.4667 -0.12792,1.0127 l 0,0.8847 -0.79946,0 -0.79947,0 0,-1.8121 z m 6.07595,1.0127 0,-0.7995 0.79946,0 0.79947,0 0,0.7995 0,0.7994 -0.79947,0 -0.79946,0 0,-0.7994 z m 10.12657,-1.0127 0,-1.8121 0.79947,0 0.79946,0 0,1.8121 0,1.8121 -0.79946,0 -0.79947,0 0,-1.8121 z m -36.45567,-1.0126 0,-0.7995 0.79947,0 0.79947,0 0,0.7995 0,0.7994 -0.79947,0 -0.79947,0 0,-0.7994 z m 4.05063,0 0,-0.7995 0.79947,0 0.79947,0 0,0.7995 0,0.7994 -0.79947,0 -0.79947,0 0,-0.7994 z m 12.15189,-3.1233 c 0,-2.9089 -0.0331,-3.9558 -0.12791,-4.0506 -0.0789,-0.079 -0.46665,-0.1279 -1.01266,-0.1279 l -0.88474,0 0,-0.8848 c 0,-0.546 -0.049,-0.9337 -0.12792,-1.0126 -0.18031,-0.1804 -4.04086,-0.1804 -4.22118,0 -0.0789,0.079 -0.12791,0.4666 -0.12791,1.0126 l 0,0.8848 -0.79947,0 -0.79947,0 0,-1.8122 0,-1.8121 0.88475,0 c 0.546,0 0.93371,-0.049 1.01265,-0.1279 0.0808,-0.081 0.12792,-0.4856 0.12792,-1.0979 0,-0.6124 -0.0472,-1.0172 -0.12792,-1.098 -0.0789,-0.079 -0.46665,-0.1279 -1.01265,-0.1279 l -0.88475,0 0,-0.7994 0,-0.7995 0.88475,0 c 0.546,0 0.93371,-0.049 1.01265,-0.1279 0.0789,-0.079 0.12792,-0.4667 0.12792,-1.0127 l 0,-0.8847 0.79946,0 0.79947,0 0,1.8974 c 0,1.3336 0.038,1.9354 0.12792,2.0253 0.0958,0.096 1.36679,0.1279 5.06328,0.1279 l 4.93537,0 0,4.8501 0,4.8501 -0.79946,0 -0.79947,0 0,-1.8974 c 0,-1.3336 -0.038,-1.9354 -0.12791,-2.0253 -0.17354,-0.1736 -2.02234,-0.1736 -2.19587,0 -0.18032,0.1803 -0.18032,4.0408 0,4.2212 0.0789,0.079 0.46665,0.1279 1.01266,0.1279 l 0.88474,0 0,0.7994 0,0.7995 -0.88474,0 c -0.54601,0 -0.93372,0.049 -1.01266,0.1279 -0.0789,0.079 -0.12791,0.4667 -0.12791,1.0127 l 0,0.8847 -0.79947,0 -0.79947,0 0,-3.9227 z m -28.3544,-7.0033 0,-6.8754 6.87541,0 6.87541,0 0,6.8754 0,6.8754 -6.87541,0 -6.87541,0 0,-6.8754 z m 12.02397,5.1485 c 0.18421,-0.1842 0.18421,-10.1129 0,-10.2971 -0.18421,-0.1842 -10.11291,-0.1842 -10.29713,0 -0.18421,0.1842 -0.18421,10.1129 0,10.2971 0.18422,0.1843 10.11292,0.1843 10.29713,0 z m -7.97334,-5.1485 0,-2.8248 2.82478,0 2.82478,0 0,2.8248 0,2.8248 -2.82478,0 -2.82478,0 0,-2.8248 z m 12.15188,6.0759 0,-0.7994 0.79947,0 0.79947,0 0,0.7994 0,0.7995 -0.79947,0 -0.79947,0 0,-0.7995 z m 8.10126,-1.0126 0,-1.8122 0.79947,0 0.79947,0 0,1.8122 0,1.8121 -0.79947,0 -0.79947,0 0,-1.8121 z m 12.15189,-5.0633 0,-6.8754 6.87541,0 6.87541,0 0,6.8754 0,6.8754 -6.87541,0 -6.87541,0 0,-6.8754 z m 12.02398,5.1485 c 0.18421,-0.1842 0.18421,-10.1129 0,-10.2971 -0.18422,-0.1842 -10.11292,-0.1842 -10.29713,0 -0.18421,0.1842 -0.18421,10.1129 0,10.2971 0.18421,0.1843 10.11291,0.1843 10.29713,0 z m -7.97335,-5.1485 0,-2.8248 2.82478,0 2.82478,0 0,2.8248 0,2.8248 -2.82478,0 -2.82478,0 0,-2.8248 z m -24.30378,0 0,-2.8248 0.79947,0 0.79947,0 0,2.8248 0,2.8248 -0.79947,0 -0.79947,0 0,-2.8248 z m 0,-6.076 0,-0.7994 1.81213,0 1.81212,0 0,0.7994 0,0.7995 -1.81212,0 -1.81213,0 0,-0.7995 z m 12.15189,0 0,-0.7994 0.79947,0 0.79947,0 0,0.7994 0,0.7995 -0.79947,0 -0.79947,0 0,-0.7995 z m 4.05063,0 0,-0.7994 0.79947,0 0.79946,0 0,0.7994 0,0.7995 -0.79946,0 -0.79947,0 0,-0.7995 z"
           style="fill:#000000" />
      </g>
      <path
         d="m 255.04032,957.49635 a 4.4550786,3.9145234 60.000017 0 1 -6.78015,3.91452 4.4550786,3.9145234 60.000017 1 1 6.78015,-3.91452 z"
         id="path3264"
         inkscape:connector-curvature="0"
         style="fill:#ffffff;fill-opacity:1;stroke:#000000;stroke-width:1.81782866;stroke-linecap:round;stroke-linejoin:round" />
      <path
         d="m 263.54417,952.59076 a 4.4550791,3.9145238 60.000017 0 1 -6.78015,3.91452 4.4550791,3.9145238 60.000017 1 1 6.78015,-3.91452 z"
         id="path3266"
         inkscape:connector-curvature="0"
         style="fill:#ffffff;fill-opacity:1;stroke:#000000;stroke-width:1.81782866;stroke-linecap:round;stroke-linejoin:round" />
      <path
         d="m 260.51221,957.13994 a 4.455081,3.9145255 60.000017 0 1 -6.78016,3.91452 4.455081,3.9145255 60.000017 1 1 6.78016,-3.91452 z"
         id="path3268"
         inkscape:connector-curvature="0"
         style="fill:#ffffff;fill-opacity:1;stroke:#000000;stroke-width:1.81782866;stroke-linecap:round;stroke-linejoin:round" />
      <path
         d="m 287.21035,957.49635 a 3.9145234,4.4550786 29.999983 0 0 6.78015,3.91452 3.9145234,4.4550786 29.999983 1 0 -6.78015,-3.91452 z"
         id="path3270"
         inkscape:connector-curvature="0"
         style="fill:#ffffff;fill-opacity:1;stroke:#000000;stroke-width:1.81782866;stroke-linecap:round;stroke-linejoin:round" />
      <path
         d="m 278.70601,952.59076 a 3.9145238,4.4550791 29.999983 0 0 6.78015,3.91452 3.9145238,4.4550791 29.999983 1 0 -6.78015,-3.91452 z"
         id="path3272"
         inkscape:connector-curvature="0"
         style="fill:#ffffff;fill-opacity:1;stroke:#000000;stroke-width:1.81782866;stroke-linecap:round;stroke-linejoin:round" />
      <path
         d="m 281.74044,957.13994 a 3.9145234,4.4550786 29.999983 0 0 6.78015,3.91452 3.9145234,4.4550786 29.999983 1 0 -6.78015,-3.91452 z"
         id="path3274"
         inkscape:connector-curvature="0"
         style="fill:#ffffff;fill-opacity:1;stroke:#000000;stroke-width:1.81782866;stroke-linecap:round;stroke-linejoin:round" />
    </g>
    <g
       transform="matrix(0.13950596,0,0,0.13950596,20.318684,907.91393)"
       id="layer1-4">
      <g
         id="g3151"
         style="fill:none;stroke:#000000;stroke-width:7.16815253;stroke-miterlimit:4;stroke-dasharray:none"
         transform="translate(188.26412,-7.2409275)">
        <path
           d="m 708.4,502.01 c 0,37.16 -11.92,65.02 -27.17,90.8 -3.57,6.03 -8.05,7.41 -12.34,12.89 -9.93,12.7 -5.87,26.34 -19.51,36.53 -11.91,8.9 -14.48,24.4 -14.96,40.51 -0.23,7.49 -16.51,-1.37 -21.05,3.27 -2.6,2.65 -11.77,-1.05 -15.39,0.98 -7.92,4.44 -14.63,14.82 -23.89,19.37 -7.4,3.64 -12.6,-16.52 -21.87,-15.24 -15.76,2.18 -33.59,-4.74 -52.76,-3.26 -8.96,0.69 -12.09,-18.46 -21.25,-17.17 -12.83,1.81 0.4,-46.57 -11.35,-37.37 -12.99,10.17 -7.22,-22.08 -19.92,-22.08 -5.47,0 7.66,-30.14 2.17,-30.19 -2.36,-0.02 -32.59,33.65 -33.93,31.7 -4.21,-6.11 -7.87,-20.52 -15.34,-26.81 -5.25,-4.43 -7.9,-11.28 -13.4,-15.09 -8.99,-6.23 -16.11,-2.36 -25.66,-7.12 -5.77,-2.87 -11.54,-7.1 -17.37,-6.82 -8.84,0.42 -14.53,2.38 -27.09,3.39 -20.5,1.66 -34.66,14.44 -55.05,14.11 -17.02,-0.28 -31.21,35.1 -47.69,32.77 -18.03,-2.55 -32.34,4.29 -45.13,4.12 -11.01,-0.14 -20.45,29.56 -30.42,25.02 -14.24,-6.49 -36.13,2.41 -47.822,-13.43 -5.486,-7.44 12.562,-6.29 8.105,-15.84 -2.685,-5.75 0.519,-12.17 0.268,-19.57 -0.192,-5.68 -3.656,-12.27 -5.863,-17.55 -2.267,-5.42 -7.544,-9.92 -10.006,-16.38 -1.976,-5.18 -0.969,-12.2 -3.938,-17.57 -4.309,-7.8 -11.825,-15.42 -16.082,-22.92 -2.189,-3.86 -1.425,-8.14 -3.718,-11.67 -6.669,-10.26 -17.693,-14.85 -21.19,-23.52 -2.934,-7.27 20.25,5.54 21.256,0.17 0.721,-3.84 -6.174,-8.59 -10.094,-16.02 -4.882,-9.25 -7.114,-21.28 -7.114,-25.05 0,-9.54 -2.331,-27.06 0.883,-34.25 3.198,-7.15 8.255,-2.79 14.227,-7.64 9.028,-7.33 17.724,-16.67 30.774,-23.07 4.513,-2.21 11.229,-1.81 16.214,-3.81 19.33,-7.77 39.47,-16.91 57.97,-26.47 8.73,-4.52 11.2,-20.1 19.53,-25.23 3.65,-2.25 -6.66,-13.07 -3.05,-15.43 5.29,-3.45 1.29,-10.87 6.56,-14.56 4.16,-2.91 15.25,14.97 19.34,11.85 2.64,-2.02 -4.04,-19.61 -1.45,-21.77 3.35,-2.8 15.21,7.51 18.56,4.62 2.61,-2.26 -7.96,-18.51 -5.38,-20.86 13.61,-12.45 31.83,-22.7 47.09,-34.28 4.46,-3.39 19.79,21.93 24.32,18.69 7.28,-5.22 18.8,10.12 25.57,3.38 5.6,-5.58 -11.58,-7.92 -6.34,-15.39 6.96,-9.89 12.74,-23.67 24.48,-33.89 7.92,-6.9 20.45,1.94 29.93,-2.47 3.02,-1.4 4.15,-6.15 -0.11,-9.64 -4.05,-3.31 -13.5,-5.34 -11.15,-7.84 3.29,-3.51 22.32,6.61 33.45,6 5.58,-0.31 11.7,4.26 13.25,4.26 5.2,0 11.92,5.49 17.06,5.64 3.63,0.1 5.11,-5.18 8.7,-5.01 7.95,0.38 11.26,2.97 19.04,3.71 7.4,0.69 4.02,10.28 -0.88,15.7 -2.52,2.79 -16.91,7.68 -12.68,13.14 4.31,5.55 -14.81,19.29 -8.17,23.4 25.99,16.08 49.08,45.95 79.91,53.95 24.99,6.49 26.96,-48.57 29.67,-73.46 1.71,-15.72 17.78,-64.12 21.46,-53.82 3.84,10.76 7.9,26.5 17.87,47.51 1.72,3.63 -0.1,16.99 2.24,20.9 2.39,4 7.19,0.39 11.75,2.08 4.26,1.59 8.24,8.45 11.51,12.52 5.2,6.46 -1.54,28.67 4.42,35.58 8.16,9.47 4.05,39.01 13.49,48.28 3.76,3.69 8.43,-2.83 12.43,0.6 5.72,4.9 17.56,12.78 21.35,19.42 2.76,4.85 -2.74,8.67 1.64,11.97 7.32,5.5 9.42,27.64 16.84,32.44 3.04,1.96 0.69,-6.33 8.41,-0.84 5.68,4.04 3.43,15.89 7.3,21.06 5.85,7.8 19.16,23.36 23.89,30.4 10.61,15.8 4.65,39.4 4.65,47.67 z"
           id="path2221"
           inkscape:connector-curvature="0"
           style="stroke-width:7.16815253;stroke-miterlimit:4;stroke-dasharray:none" />
        <path
           d="m 597.5,759.96 c 0,10.34 -6.37,16.98 -11.64,23.98 -4.59,6.1 -7.42,13.26 -16.28,13.26 -6.47,0 -6.18,-5.39 -8.77,-8.21 -5.04,-5.47 -8.75,-11.87 -8.75,-24.65 0,-11.93 -15.51,-28.87 -4.46,-29.61 6.86,-0.47 21.8,11.54 29.1,11.54 7.43,0 15.52,-5.24 18.61,-5.14 4.82,0.16 2.19,7.04 2.19,18.83 z"
           id="path2225"
           inkscape:connector-curvature="0"
           style="stroke-width:7.16815253;stroke-miterlimit:4;stroke-dasharray:none" />
      </g>
      <path
         style="fill:#ffffff;fill-opacity:1;fill-rule:nonzero;stroke:#000000;stroke-width:1;stroke-linecap:round;stroke-linejoin:round;stroke-miterlimit:4;stroke-opacity:1;stroke-dasharray:3.00000001,3.00000001;stroke-dashoffset:0"
         d="m 143.75,122.14286 c 0,0 1.70391,9.49527 -2.32143,13.75 -3.16687,3.34733 -2.22029,3.76799 -3.21428,5.71428 C 132.79833,152.21186 126.60714,152.5 126.60714,152.5"
         id="path4588"
         inkscape:connector-curvature="0"
         transform="matrix(7.1681525,0,0,7.1681525,-145.64743,-416.141)"
         sodipodi:nodetypes="cssc" />
      <text
         xml:space="preserve"
         style="font-size:71.68152618px;font-style:normal;font-variant:normal;font-weight:normal;font-stretch:normal;line-height:125%;letter-spacing:0px;word-spacing:0px;fill:#000000;fill-opacity:1;stroke:none;font-family:SansSerif;-inkscape-font-specification:SansSerif"
         x="911.52802"
         y="452.5152"
         id="text4590"
         sodipodi:linespacing="125%"><tspan
           sodipodi:role="line"
           id="tspan4592"
           x="911.52802"
           y="452.5152">Brisbane</tspan></text>
      <text
         xml:space="preserve"
         style="font-size:71.68152618px;font-style:normal;font-variant:normal;font-weight:normal;font-stretch:normal;line-height:125%;letter-spacing:0px;word-spacing:0px;fill:#000000;fill-opacity:1;stroke:none;font-family:SansSerif;-inkscape-font-specification:SansSerif"
         x="897.23315"
         y="602.33405"
         id="text4590-2"
         sodipodi:linespacing="125%"><tspan
           sodipodi:role="line"
           id="tspan4592-1"
           x="897.23315"
           y="602.33405">Sydney</tspan></text>
      <text
         xml:space="preserve"
         style="font-size:71.68152618px;font-style:normal;font-variant:normal;font-weight:normal;font-stretch:normal;line-height:125%;letter-spacing:0px;word-spacing:0px;fill:#000000;fill-opacity:1;stroke:none;font-family:SansSerif;-inkscape-font-specification:SansSerif"
         x="828.44434"
         y="747.15265"
         id="text4590-9"
         sodipodi:linespacing="125%"><tspan
           sodipodi:role="line"
           id="tspan4592-0"
           x="828.44434"
           y="747.15265">Melbourne</tspan></text>
      <path
         sodipodi:type="arc"
         style="fill:#ca0012;fill-opacity:1;fill-rule:nonzero;stroke:none"
         id="path3042"
         sodipodi:cx="-97.479721"
         sodipodi:cy="101.98982"
         sodipodi:rx="26.769043"
         sodipodi:ry="26.769043"
         d="m -70.710678,101.98982 a 26.769043,26.769043 0 1 1 -53.538082,0 26.769043,26.769043 0 1 1 53.538082,0 z"
         transform="matrix(1.1496095,0,0,1.1496095,989.19718,340.69745)" />
      <path
         sodipodi:type="arc"
         style="fill:#ca0012;fill-opacity:1;fill-rule:nonzero;stroke:none"
         id="path3042-6"
         sodipodi:cx="-97.479721"
         sodipodi:cy="101.98982"
         sodipodi:rx="26.769043"
         sodipodi:ry="26.769043"
         d="m -70.710678,101.98982 a 26.769043,26.769043 0 1 1 -53.538082,0 26.769043,26.769043 0 1 1 53.538082,0 z"
         transform="matrix(1.1496095,0,0,1.1496095,962.04372,465.60345)" />
      <path
         sodipodi:type="arc"
         style="fill:#ca0012;fill-opacity:1;fill-rule:nonzero;stroke:none"
         id="path3042-66"
         sodipodi:cx="-97.479721"
         sodipodi:cy="101.98982"
         sodipodi:rx="26.769043"
         sodipodi:ry="26.769043"
         d="m -70.710678,101.98982 a 26.769043,26.769043 0 1 1 -53.538082,0 26.769043,26.769043 0 1 1 53.538082,0 z"
         transform="matrix(1.1496095,0,0,1.1496095,871.53212,559.88105)" />
    </g>
  </g>
</svg>
